<svg xmlns="http://www.w3.org/2000/svg" xmlns:xlink="http://www.w3.org/1999/xlink" version="1.1" x="0px" y="0px" viewBox="0 0 100 125" style="enable-background:new 0 0 100 100;" xml:space="preserve"><path d="M76,50c0-14.3-11.7-26-26-26c-14.3,0-26,11.7-26,26c0,14.3,11.7,26,26,26C64.3,76,76,64.3,76,50z M26,50  c0-13.2,10.8-24,24-24s24,10.8,24,24S63.2,74,50,74S26,63.2,26,50z M48.9,58c-2.2,0-3.9-1.6-3.9-3.5c0-0.6-0.4-1-1-1s-1,0.4-1,1  c0,3,2.7,5.5,5.9,5.5H49v2c0,0.6,0.4,1,1,1s1-0.4,1-1v-2h0.1c3.3,0,5.9-2.5,5.9-5.5S54.3,49,51.1,49H51v-7h0.1  c2.2,0,3.9,1.6,3.9,3.5c0,0.6,0.4,1,1,1s1-0.4,1-1c0-3-2.7-5.5-5.9-5.5H51v-2c0-0.6-0.4-1-1-1s-1,0.4-1,1v2h-0.1  c-3.3,0-5.9,2.5-5.9,5.5s2.7,5.5,5.9,5.5H49L48.9,58L48.9,58z M48.9,49c-2.2,0-3.9-1.6-3.9-3.5s1.8-3.5,3.9-3.5H49L48.9,49L48.9,49z   M51,51L51,51c2.2,0,4,1.6,4,3.5S53.2,58,51.1,58H51V51z M53.9,31.4c0.1-0.5,0.7-0.9,1.2-0.7c3.4,0.9,6.5,2.7,9,5.2  c2.5,2.5,4.3,5.6,5.2,8.9c0.1,0.5-0.2,1.1-0.7,1.2c-0.1,0-0.2,0-0.3,0c-0.4,0-0.8-0.3-1-0.7c-0.8-3-2.4-5.8-4.7-8  c-2.2-2.2-5-3.9-8.1-4.7C54.1,32.5,53.8,31.9,53.9,31.4z M37.3,35.9c0.4,0.4,0.4,1,0,1.4C33.9,40.7,32,45.2,32,50  c0,1.6,0.2,3.2,0.6,4.7c0.1,0.5-0.2,1.1-0.7,1.2c-0.1,0-0.2,0-0.3,0c-0.4,0-0.8-0.3-1-0.7C30.2,53.5,30,51.8,30,50  c0-5.3,2.1-10.3,5.8-14.1C36.2,35.5,36.9,35.5,37.3,35.9z M64.1,64.1C60.4,67.9,55.3,70,50,70c-1.7,0-3.5-0.2-5.2-0.7  c-0.5-0.1-0.9-0.7-0.7-1.2c0.1-0.5,0.7-0.8,1.2-0.7c1.5,0.4,3.1,0.6,4.7,0.6c4.8,0,9.3-1.9,12.7-5.3c0.4-0.4,1-0.4,1.4,0  C64.6,63.1,64.6,63.7,64.1,64.1L64.1,64.1z M19,60c0-2.2-1.8-4-4-4s-4,1.8-4,4s1.8,4,4,4S19,62.2,19,60z M15,62c-1.1,0-2-0.9-2-2  s0.9-2,2-2s2,0.9,2,2S16.1,62,15,62z M20,67c-2.2,0-4,1.8-4,4s1.8,4,4,4s4-1.8,4-4S22.2,67,20,67z M20,73c-1.1,0-2-0.9-2-2  s0.9-2,2-2s2,0.9,2,2S21.1,73,20,73z M17.1,47.3C18.5,30.6,32.4,17.5,49,17v3c0,0.4,0.2,0.8,0.6,0.9c0.4,0.2,0.8,0.1,1.1-0.2l7-7  c0.4-0.4,0.4-1,0-1.4l-7-7C50.4,5,50,4.9,49.6,5.1C49.2,5.2,49,5.6,49,6v3C28.2,9.5,10.8,25.9,9.1,46.7c-0.1,1.1,0.3,2.2,1,3  c0.8,0.8,1.8,1.3,3,1.3C15.2,51,16.9,49.4,17.1,47.3z M11.1,46.9C12.7,26.8,29.8,11,50,11c0.6,0,1-0.4,1-1V8.4l4.6,4.6L51,17.6V16  c0-0.6-0.4-1-1-1c-18.1,0-33.4,14.1-34.9,32.1c-0.1,1.1-0.9,1.9-2,1.9c-0.6,0-1.1-0.2-1.5-0.7C11.3,47.9,11.1,47.4,11.1,46.9z   M81,40c0,2.2,1.8,4,4,4s4-1.8,4-4s-1.8-4-4-4S81,37.8,81,40z M85,38c1.1,0,2,0.9,2,2s-0.9,2-2,2s-2-0.9-2-2S83.9,38,85,38z M80,33  c2.2,0,4-1.8,4-4s-1.8-4-4-4s-4,1.8-4,4S77.8,33,80,33z M80,27c1.1,0,2,0.9,2,2s-0.9,2-2,2s-2-0.9-2-2S78.9,27,80,27z M89.8,50.3  c-0.8-0.8-1.8-1.3-3-1.3c-2.1,0-3.8,1.6-4,3.7C81.5,69.4,67.6,82.5,51,83v-3c0-0.4-0.2-0.8-0.6-0.9c-0.4-0.2-0.8-0.1-1.1,0.2l-7,7  c-0.4,0.4-0.4,1,0,1.4l7,7c0.2,0.2,0.4,0.3,0.7,0.3c0.1,0,0.3,0,0.4-0.1c0.4-0.2,0.6-0.5,0.6-0.9v-3c20.8-0.5,38.2-16.9,39.9-37.7  C91,52.2,90.6,51.1,89.8,50.3z M50,89c-0.6,0-1,0.4-1,1v1.6L44.4,87l4.6-4.6V84c0,0.6,0.4,1,1,1c18.1,0,33.4-14.1,34.9-32.1  c0.1-1.1,0.9-1.9,2-1.9c0.6,0,1.1,0.2,1.5,0.7c0.4,0.4,0.6,0.9,0.5,1.5C87.3,73.2,70.2,89,50,89z"/><text x="0" y="115" fill="#000000" font-size="5px" font-weight="bold" font-family="'Helvetica Neue', Helvetica, Arial-Unicode, Arial, Sans-serif">Created by Mark Aventura</text><text x="0" y="120" fill="#000000" font-size="5px" font-weight="bold" font-family="'Helvetica Neue', Helvetica, Arial-Unicode, Arial, Sans-serif">from the Noun Project</text></svg>